<svg xmlns="http://www.w3.org/2000/svg" version="1.1" xmlns:xlink="http://www.w3.org/1999/xlink" xmlns:svgjs="http://svgjs.com/svgjs" width="240px" height="237px"><svg xmlns="http://www.w3.org/2000/svg" version="1.1" width="240px" height="237px" style="shape-rendering:geometricPrecision; text-rendering:geometricPrecision; image-rendering:optimizeQuality; fill-rule:evenodd; clip-rule:evenodd" xmlns:xlink="http://www.w3.org/1999/xlink">
<g><path style="opacity:1" fill="#707bcc" d="M 136.5,4.5 C 125.5,4.5 114.5,4.5 103.5,4.5C 114.511,2.0806 125.511,2.0806 136.5,4.5 Z"></path></g>
<g><path style="opacity:1" fill="#4956ce" d="M 103.5,4.5 C 114.5,4.5 125.5,4.5 136.5,4.5C 137.167,4.5 137.833,4.5 138.5,4.5C 140.255,5.79177 142.255,6.79177 144.5,7.5C 144.043,8.29755 143.376,8.63088 142.5,8.5C 130.187,7.65627 117.854,7.32294 105.5,7.5C 101.138,7.75632 96.8049,7.92299 92.5,8C 93.4158,7.72158 94.0825,7.22158 94.5,6.5C 97.2727,5.34281 100.273,4.67615 103.5,4.5 Z"></path></g>
<g><path style="opacity:1" fill="#515ccd" d="M 138.5,4.5 C 153.676,6.61278 167.676,11.7794 180.5,20C 181.833,20.6667 181.833,21.3333 180.5,22C 179.167,22.6667 177.833,22.6667 176.5,22C 165.692,16.0119 154.358,11.5119 142.5,8.5C 143.376,8.63088 144.043,8.29755 144.5,7.5C 142.255,6.79177 140.255,5.79177 138.5,4.5 Z"></path></g>
<g><path style="opacity:1" fill="#5661cd" d="M 94.5,6.5 C 94.0825,7.22158 93.4158,7.72158 92.5,8C 96.8049,7.92299 101.138,7.75632 105.5,7.5C 90.0372,10.2139 75.3705,15.5472 61.5,23.5C 60.5,23.1667 59.8333,22.5 59.5,21.5C 60.7481,19.5414 62.4148,18.0414 64.5,17C 74.0244,12.0677 84.0244,8.56773 94.5,6.5 Z"></path></g>
<g><path style="opacity:1" fill="#c0f1fd" d="M 162.5,34.5 C 154.101,38.1356 145.435,41.3023 136.5,44C 130.167,44.6667 123.833,44.6667 117.5,44C 112.146,42.8276 106.813,41.6609 101.5,40.5C 101.33,41.8221 101.663,42.9887 102.5,44C 114.627,48.0203 126.96,49.0203 139.5,47C 149.415,43.2067 159.415,39.7067 169.5,36.5C 172.28,38.4081 174.947,40.5748 177.5,43C 178.448,43.4828 179.448,43.6495 180.5,43.5C 180.5,43.8333 180.5,44.1667 180.5,44.5C 175.299,46.0979 170.299,48.2646 165.5,51C 159.116,52.6735 152.782,53.8402 146.5,54.5C 145.596,55.209 145.263,56.209 145.5,57.5C 148.713,57.81 151.713,57.4767 154.5,56.5C 158.595,56.1924 162.595,55.3591 166.5,54C 171.5,51.6667 176.5,49.3333 181.5,47C 185.358,46.1901 189.024,46.3567 192.5,47.5C 190.076,47.1924 187.743,47.5258 185.5,48.5C 187.735,50.6381 189.735,52.9714 191.5,55.5C 186.167,56.5 180.833,57.5 175.5,58.5C 175.5,59.8333 175.5,61.1667 175.5,62.5C 182.585,59.9783 189.918,58.9783 197.5,59.5C 203.341,68.5124 208.675,77.8457 213.5,87.5C 212.833,87.5 212.167,87.5 211.5,87.5C 209.393,86.5318 207.059,86.1984 204.5,86.5C 198.811,88.4437 197.144,92.1104 199.5,97.5C 200.426,101.753 203.092,103.753 207.5,103.5C 212.067,103.895 214.734,101.895 215.5,97.5C 215.833,97.5 216.167,97.5 216.5,97.5C 222.324,124.208 218.491,149.542 205,173.5C 198.977,181.68 192.81,189.68 186.5,197.5C 186.167,197.5 185.833,197.5 185.5,197.5C 185.808,169.468 185.475,141.468 184.5,113.5C 185.278,112.844 185.944,112.011 186.5,111C 185.815,108.205 185.315,105.372 185,102.5C 183.209,100.971 181.542,99.3039 180,97.5C 179.115,94.2741 177.781,91.2741 176,88.5C 175.329,87.7476 174.496,87.4142 173.5,87.5C 178.288,85.3646 178.622,82.5313 174.5,79C 159.395,72.9483 144.395,66.6149 129.5,60C 125.572,58.6752 121.572,58.3418 117.5,59C 100.752,65.8049 84.0853,72.8049 67.5,80C 65.8527,83.5293 66.8527,86.0293 70.5,87.5C 68.7753,88.278 67.1086,88.6114 65.5,88.5C 63.57,92.9362 61.4034,97.2695 59,101.5C 58.5026,104.146 58.3359,106.813 58.5,109.5C 59.5,109.5 60.5,109.5 61.5,109.5C 58.8001,111.046 56.9668,113.379 56,116.5C 55.5,142.498 55.3334,168.498 55.5,194.5C 54.7611,194.631 54.0944,194.464 53.5,194C 27.4875,167.131 18.3208,135.297 26,98.5C 35.9624,62.537 58.7957,39.037 94.5,28C 112.167,23.3333 129.833,23.3333 147.5,28C 152.973,29.3156 157.973,31.4822 162.5,34.5 Z"></path></g>
<g><path style="opacity:1" fill="#465ace" d="M 217.5,55.5 C 217.719,56.675 217.386,57.675 216.5,58.5C 214.6,56.3841 212.267,55.0507 209.5,54.5C 206.86,53.1799 204.193,51.8466 201.5,50.5C 199.946,49.1054 200.279,48.4387 202.5,48.5C 203.849,48.8457 205.183,49.179 206.5,49.5C 207.525,49.1034 207.692,48.4368 207,47.5C 196.983,35.5206 184.483,31.854 169.5,36.5C 159.415,39.7067 149.415,43.2067 139.5,47C 126.96,49.0203 114.627,48.0203 102.5,44C 101.663,42.9887 101.33,41.8221 101.5,40.5C 106.813,41.6609 112.146,42.8276 117.5,44C 123.833,44.6667 130.167,44.6667 136.5,44C 145.435,41.3023 154.101,38.1356 162.5,34.5C 186.963,25.5683 205.296,32.5683 217.5,55.5 Z M 206.5,49.5 C 198.704,44.072 190.038,42.072 180.5,43.5C 179.448,43.6495 178.448,43.4828 177.5,43C 174.947,40.5748 172.28,38.4081 169.5,36.5C 184.483,31.854 196.983,35.5206 207,47.5C 207.692,48.4368 207.525,49.1034 206.5,49.5 Z"></path></g>
<g><path style="opacity:0.973" fill="#6974d4" d="M 206.5,49.5 C 205.183,49.179 203.849,48.8457 202.5,48.5C 200.279,48.4387 199.946,49.1054 201.5,50.5C 199.847,50.3404 198.514,49.6737 197.5,48.5C 200.113,47.9045 200.113,47.0712 197.5,46C 191.877,44.971 186.21,44.471 180.5,44.5C 180.5,44.1667 180.5,43.8333 180.5,43.5C 190.038,42.072 198.704,44.072 206.5,49.5 Z"></path></g>
<g><path style="opacity:1" fill="#505ccc" d="M 9.5,101.5 C 8.83333,102.5 8.16667,103.5 7.5,104.5C 7.56544,104.062 7.39877,103.728 7,103.5C 6.72158,104.416 6.22158,105.082 5.5,105.5C 8.4184,79.3343 19.0851,57.001 37.5,38.5C 38.5,38.8333 39.1667,39.5 39.5,40.5C 23.9136,58.0071 13.9136,78.3404 9.5,101.5 Z"></path></g>
<g><path style="opacity:1" fill="#3251c8" d="M 180.5,44.5 C 186.21,44.471 191.877,44.971 197.5,46C 200.113,47.0712 200.113,47.9045 197.5,48.5C 195.883,47.962 194.216,47.6287 192.5,47.5C 189.024,46.3567 185.358,46.1901 181.5,47C 176.5,49.3333 171.5,51.6667 166.5,54C 162.595,55.3591 158.595,56.1924 154.5,56.5C 151.302,57.0356 148.635,56.369 146.5,54.5C 152.782,53.8402 159.116,52.6735 165.5,51C 170.299,48.2646 175.299,46.0979 180.5,44.5 Z"></path></g>
<g><path style="opacity:1" fill="#4c75cf" d="M 146.5,54.5 C 148.635,56.369 151.302,57.0356 154.5,56.5C 151.713,57.4767 148.713,57.81 145.5,57.5C 145.263,56.209 145.596,55.209 146.5,54.5 Z"></path></g>
<g><path style="opacity:1" fill="#5161cd" d="M 209.5,54.5 C 212.267,55.0507 214.6,56.3841 216.5,58.5C 217.386,57.675 217.719,56.675 217.5,55.5C 219.924,58.0078 221.59,61.0078 222.5,64.5C 221.504,64.5858 220.671,64.2524 220,63.5C 219.383,64.4491 219.549,65.2825 220.5,66C 218.634,64.9916 217.301,65.4916 216.5,67.5C 210.775,63.4729 204.441,60.8062 197.5,59.5C 189.918,58.9783 182.585,59.9783 175.5,62.5C 175.5,61.1667 175.5,59.8333 175.5,58.5C 180.833,57.5 186.167,56.5 191.5,55.5C 200.776,55.3702 209.109,58.0369 216.5,63.5C 217.59,62.6086 217.59,61.6086 216.5,60.5C 214.122,58.448 211.789,56.448 209.5,54.5 Z"></path></g>
<g><path style="opacity:1" fill="#3a53cb" d="M 173.5,87.5 C 169.221,88.8712 165.054,90.5378 161,92.5C 162.444,97.6908 163.61,103.024 164.5,108.5C 163.5,108.5 162.5,108.5 161.5,108.5C 161.035,103.903 159.702,99.5693 157.5,95.5C 159.256,94.4479 159.923,92.7812 159.5,90.5C 156.644,91.8279 153.644,92.8279 150.5,93.5C 151.429,92.6851 152.429,91.8518 153.5,91C 150.323,89.0548 146.823,88.2215 143,88.5C 140.292,88.5797 137.625,88.913 135,89.5C 132.659,88.9931 132.159,87.8265 133.5,86C 142.413,83.3411 150.747,84.5077 158.5,89.5C 163.982,87.5888 169.315,85.4221 174.5,83C 159.686,76.432 144.686,70.0987 129.5,64C 123.386,61.9005 117.386,62.2339 111.5,65C 98.6441,70.5917 85.6441,75.9251 72.5,81C 71.8333,81.6667 71.1667,82.3333 70.5,83C 75.674,85.3564 80.674,87.8564 85.5,90.5C 83.3023,90.4088 82.9689,91.0755 84.5,92.5C 79.8333,90.8333 75.1667,89.1667 70.5,87.5C 66.8527,86.0293 65.8527,83.5293 67.5,80C 84.0853,72.8049 100.752,65.8049 117.5,59C 121.572,58.3418 125.572,58.6752 129.5,60C 144.395,66.6149 159.395,72.9483 174.5,79C 178.622,82.5313 178.288,85.3646 173.5,87.5 Z"></path></g>
<g><path style="opacity:1" fill="#d3f3fc" d="M 150.5,93.5 C 147.603,94.129 144.936,95.129 142.5,96.5C 136.047,99.3906 129.38,101.724 122.5,103.5C 119.821,103.064 117.155,102.564 114.5,102C 105.03,97.6765 95.3631,93.8431 85.5,90.5C 80.674,87.8564 75.674,85.3564 70.5,83C 71.1667,82.3333 71.8333,81.6667 72.5,81C 85.6441,75.9251 98.6441,70.5917 111.5,65C 117.386,62.2339 123.386,61.9005 129.5,64C 144.686,70.0987 159.686,76.432 174.5,83C 169.315,85.4221 163.982,87.5888 158.5,89.5C 150.747,84.5077 142.413,83.3411 133.5,86C 132.159,87.8265 132.659,88.9931 135,89.5C 137.625,88.913 140.292,88.5797 143,88.5C 146.823,88.2215 150.323,89.0548 153.5,91C 152.429,91.8518 151.429,92.6851 150.5,93.5 Z"></path></g>
<g><path style="opacity:1" fill="#3f50d0" d="M 222.5,64.5 C 225.113,67.6448 226.779,71.3114 227.5,75.5C 227.573,77.0269 226.906,78.0269 225.5,78.5C 222.878,74.5428 219.878,70.8761 216.5,67.5C 217.301,65.4916 218.634,64.9916 220.5,66C 219.549,65.2825 219.383,64.4491 220,63.5C 220.671,64.2524 221.504,64.5858 222.5,64.5 Z"></path></g>
<g><path style="opacity:1" fill="#2f4cd3" d="M 42.5,75.5 C 44.8707,78.3722 47.8707,80.2056 51.5,81C 48.4613,83.0252 46.7947,85.8585 46.5,89.5C 43.6859,86.9466 40.3525,85.4466 36.5,85C 39.9839,82.6998 41.9839,79.5331 42.5,75.5 Z"></path></g>
<g><path style="opacity:1" fill="#5f6ad0" d="M 227.5,75.5 C 234.06,89.2975 237.06,103.964 236.5,119.5C 236.499,124.013 236.166,128.347 235.5,132.5C 235.838,122.117 235.338,111.784 234,101.5C 233.501,107.157 233.334,112.824 233.5,118.5C 232.776,104.913 230.11,91.5797 225.5,78.5C 226.906,78.0269 227.573,77.0269 227.5,75.5 Z"></path></g>
<g><path style="opacity:1" fill="#2843cf" d="M 204.5,86.5 C 207.059,86.1984 209.393,86.5318 211.5,87.5C 209.034,88.6341 206.367,88.8007 203.5,88C 204.056,87.6174 204.389,87.1174 204.5,86.5 Z"></path></g>
<g><path style="opacity:1" fill="#5368cd" d="M 204.5,86.5 C 204.389,87.1174 204.056,87.6174 203.5,88C 206.367,88.8007 209.034,88.6341 211.5,87.5C 212.167,87.5 212.833,87.5 213.5,87.5C 216.534,90.264 217.534,93.5973 216.5,97.5C 216.167,97.5 215.833,97.5 215.5,97.5C 215.852,94.9272 215.352,92.5938 214,90.5C 213.536,91.0944 213.369,91.7611 213.5,92.5C 211.142,89.7636 208.142,88.9302 204.5,90C 202.771,91.7889 202.104,93.9556 202.5,96.5C 201.691,94.7078 201.191,92.7078 201,90.5C 199.648,92.5938 199.148,94.9272 199.5,97.5C 197.144,92.1104 198.811,88.4437 204.5,86.5 Z"></path></g>
<g><path style="opacity:1" fill="#d4f4fd" d="M 70.5,87.5 C 75.1667,89.1667 79.8333,90.8333 84.5,92.5C 85.7206,93.0283 86.8873,93.695 88,94.5C 88.4992,99.1548 88.6658,103.821 88.5,108.5C 79.4465,108.222 70.4465,108.556 61.5,109.5C 60.5,109.5 59.5,109.5 58.5,109.5C 58.3359,106.813 58.5026,104.146 59,101.5C 61.4034,97.2695 63.57,92.9362 65.5,88.5C 67.1086,88.6114 68.7753,88.278 70.5,87.5 Z"></path></g>
<g><path style="opacity:1" fill="#d3f4fd" d="M 173.5,87.5 C 174.496,87.4142 175.329,87.7476 176,88.5C 177.781,91.2741 179.115,94.2741 180,97.5C 181.542,99.3039 183.209,100.971 185,102.5C 185.315,105.372 185.815,108.205 186.5,111C 185.944,112.011 185.278,112.844 184.5,113.5C 184.167,113.5 183.833,113.5 183.5,113.5C 183.5,112.833 183.167,112.5 182.5,112.5C 181.251,110.864 179.584,109.697 177.5,109C 173.179,108.501 168.846,108.334 164.5,108.5C 163.61,103.024 162.444,97.6908 161,92.5C 165.054,90.5378 169.221,88.8712 173.5,87.5 Z"></path></g>
<g><path style="opacity:1" fill="#5570d7" d="M 150.5,93.5 C 150.389,94.1174 150.056,94.6174 149.5,95C 150.793,95.49 152.127,95.6567 153.5,95.5C 153.819,100.363 153.486,105.03 152.5,109.5C 152.826,105.116 152.492,100.783 151.5,96.5C 150.583,97.1272 149.583,97.4606 148.5,97.5C 148.217,96.7109 147.717,96.0442 147,95.5C 145.644,96.3802 144.144,96.7135 142.5,96.5C 144.936,95.129 147.603,94.129 150.5,93.5 Z"></path></g>
<g><path style="opacity:1" fill="#7697ec" d="M 157.5,95.5 C 156.515,99.6344 156.182,103.968 156.5,108.5C 155.188,103.985 155.188,99.3181 156.5,94.5C 157.107,94.6236 157.44,94.9569 157.5,95.5 Z"></path></g>
<g><path style="opacity:1" fill="#b6ebfd" d="M 213.5,92.5 C 213.632,98.873 210.632,101.373 204.5,100C 203.695,98.8873 203.028,97.7206 202.5,96.5C 202.104,93.9556 202.771,91.7889 204.5,90C 208.142,88.9302 211.142,89.7636 213.5,92.5 Z"></path></g>
<g><path style="opacity:1" fill="#c8e9fd" d="M 157.5,95.5 C 159.702,99.5693 161.035,103.903 161.5,108.5C 159.833,108.5 158.167,108.5 156.5,108.5C 156.182,103.968 156.515,99.6344 157.5,95.5 Z"></path></g>
<g><path style="opacity:1" fill="#2f4dc8" d="M 202.5,96.5 C 203.028,97.7206 203.695,98.8873 204.5,100C 210.632,101.373 213.632,98.873 213.5,92.5C 213.369,91.7611 213.536,91.0944 214,90.5C 215.352,92.5938 215.852,94.9272 215.5,97.5C 214.734,101.895 212.067,103.895 207.5,103.5C 203.092,103.753 200.426,101.753 199.5,97.5C 199.148,94.9272 199.648,92.5938 201,90.5C 201.191,92.7078 201.691,94.7078 202.5,96.5 Z"></path></g>
<g><path style="opacity:1" fill="#2742cd" d="M 157.5,95.5 C 157.44,94.9569 157.107,94.6236 156.5,94.5C 155.188,99.3181 155.188,103.985 156.5,108.5C 156.611,109.117 156.944,109.617 157.5,110C 156.429,110.852 155.429,111.685 154.5,112.5C 154.167,112.5 153.833,112.5 153.5,112.5C 151.302,112.591 150.969,111.925 152.5,110.5C 152.5,110.167 152.5,109.833 152.5,109.5C 153.486,105.03 153.819,100.363 153.5,95.5C 152.127,95.6567 150.793,95.49 149.5,95C 150.056,94.6174 150.389,94.1174 150.5,93.5C 153.644,92.8279 156.644,91.8279 159.5,90.5C 159.923,92.7812 159.256,94.4479 157.5,95.5 Z"></path></g>
<g><path style="opacity:1" fill="#d1f0fd" d="M 148.5,97.5 C 149.583,97.4606 150.583,97.1272 151.5,96.5C 152.492,100.783 152.826,105.116 152.5,109.5C 152.5,109.833 152.5,110.167 152.5,110.5C 150.181,110.992 148.181,111.992 146.5,113.5C 127.891,122.207 109.891,121.207 92.5,110.5C 91.5067,105.88 91.1734,101.214 91.5,96.5C 99.3569,99.3413 107.19,102.341 115,105.5C 119.885,106.895 124.718,106.728 129.5,105C 135.885,102.469 142.218,99.9686 148.5,97.5 Z"></path></g>
<g><path style="opacity:1" fill="#4e68d5" d="M 164.5,108.5 C 168.846,108.334 173.179,108.501 177.5,109C 179.584,109.697 181.251,110.864 182.5,112.5C 181.167,112.5 180.5,113.167 180.5,114.5C 175.872,112.35 171.205,112.017 166.5,113.5C 165.227,112.923 165.227,112.257 166.5,111.5C 167.795,110.902 169.128,110.402 170.5,110C 168.292,109.809 166.292,109.309 164.5,108.5 Z"></path></g>
<g><path style="opacity:1" fill="#2943c5" d="M 235.5,132.5 C 235.5,133.167 235.5,133.833 235.5,134.5C 234.883,134.611 234.383,134.944 234,135.5C 233.501,130.511 233.334,125.511 233.5,120.5C 233.5,119.833 233.5,119.167 233.5,118.5C 233.334,112.824 233.501,107.157 234,101.5C 235.338,111.784 235.838,122.117 235.5,132.5 Z"></path></g>
<g><path style="opacity:1" fill="#3a55cd" d="M 85.5,90.5 C 95.3631,93.8431 105.03,97.6765 114.5,102C 117.155,102.564 119.821,103.064 122.5,103.5C 129.38,101.724 136.047,99.3906 142.5,96.5C 144.144,96.7135 145.644,96.3802 147,95.5C 147.717,96.0442 148.217,96.7109 148.5,97.5C 142.218,99.9686 135.885,102.469 129.5,105C 124.718,106.728 119.885,106.895 115,105.5C 107.19,102.341 99.3569,99.3413 91.5,96.5C 91.1734,101.214 91.5067,105.88 92.5,110.5C 109.891,121.207 127.891,122.207 146.5,113.5C 147.5,113.5 148.5,113.5 149.5,113.5C 149.5,114.5 149.5,115.5 149.5,116.5C 153.042,116.813 156.375,116.479 159.5,115.5C 160.167,114.5 160.833,113.5 161.5,112.5C 160.167,111.167 160.167,109.833 161.5,108.5C 162.5,108.5 163.5,108.5 164.5,108.5C 166.292,109.309 168.292,109.809 170.5,110C 169.128,110.402 167.795,110.902 166.5,111.5C 165.227,112.257 165.227,112.923 166.5,113.5C 169.935,115.053 173.268,116.886 176.5,119C 177.252,119.671 177.586,120.504 177.5,121.5C 177.5,144.833 177.5,168.167 177.5,191.5C 139.5,191.5 101.5,191.5 63.5,191.5C 62.337,168.67 62.1703,145.67 63,122.5C 64.4055,119.591 66.5722,117.591 69.5,116.5C 77.8599,116.831 86.1932,116.498 94.5,115.5C 94.3764,114.893 94.0431,114.56 93.5,114.5C 92.5266,114.013 91.5266,113.513 90.5,113C 81.1667,112.333 71.8333,112.333 62.5,113C 61.6667,113.833 60.8333,114.667 60,115.5C 59.5,142.165 59.3334,168.831 59.5,195.5C 59.5,195.833 59.5,196.167 59.5,196.5C 58.0413,196.433 56.7079,196.766 55.5,197.5C 55.5,196.5 55.5,195.5 55.5,194.5C 55.3334,168.498 55.5,142.498 56,116.5C 56.9668,113.379 58.8001,111.046 61.5,109.5C 70.4465,108.556 79.4465,108.222 88.5,108.5C 88.6658,103.821 88.4992,99.1548 88,94.5C 86.8873,93.695 85.7206,93.0283 84.5,92.5C 82.9689,91.0755 83.3023,90.4088 85.5,90.5 Z"></path></g>
<g><path style="opacity:1" fill="#506ed6" d="M 156.5,108.5 C 158.167,108.5 159.833,108.5 161.5,108.5C 160.167,109.833 160.167,111.167 161.5,112.5C 159.167,112.5 156.833,112.5 154.5,112.5C 155.429,111.685 156.429,110.852 157.5,110C 156.944,109.617 156.611,109.117 156.5,108.5 Z"></path></g>
<g><path style="opacity:1" fill="#516bd3" d="M 152.5,110.5 C 150.969,111.925 151.302,112.591 153.5,112.5C 153.047,113.458 152.381,114.292 151.5,115C 154.146,115.497 156.813,115.664 159.5,115.5C 156.375,116.479 153.042,116.813 149.5,116.5C 149.5,115.5 149.5,114.5 149.5,113.5C 148.5,113.5 147.5,113.5 146.5,113.5C 148.181,111.992 150.181,110.992 152.5,110.5 Z"></path></g>
<g><path style="opacity:0.114" fill="#94a2e6" d="M 9.5,101.5 C 8.61746,110.467 8.28413,119.467 8.5,128.5C 8.16667,128.5 7.83333,128.5 7.5,128.5C 7.5,120.5 7.5,112.5 7.5,104.5C 8.16667,103.5 8.83333,102.5 9.5,101.5 Z"></path></g>
<g><path style="opacity:1" fill="#2645c3" d="M 182.5,112.5 C 183.167,112.5 183.5,112.833 183.5,113.5C 184.134,141.647 184.8,169.647 185.5,197.5C 185.833,197.5 186.167,197.5 186.5,197.5C 185.791,198.404 184.791,198.737 183.5,198.5C 183.672,197.508 183.338,196.842 182.5,196.5C 182.831,169.661 182.498,142.995 181.5,116.5C 181.167,115.833 180.833,115.167 180.5,114.5C 180.5,113.167 181.167,112.5 182.5,112.5 Z"></path></g>
<g><path style="opacity:0.988" fill="#4654c9" d="M 7.5,104.5 C 7.5,112.5 7.5,120.5 7.5,128.5C 7.97461,131.082 7.30794,133.082 5.5,134.5C 4.22295,124.814 4.22295,115.147 5.5,105.5C 6.22158,105.082 6.72158,104.416 7,103.5C 7.39877,103.728 7.56544,104.062 7.5,104.5 Z"></path></g>
<g><path style="opacity:1" fill="#3753d0" d="M 33.5,126.5 C 41.9568,127.437 43.6235,131.27 38.5,138C 32.3709,139.245 29.5376,136.745 30,130.5C 30.6897,128.65 31.8564,127.316 33.5,126.5 Z"></path></g>
<g><path style="opacity:1" fill="#b3e8ff" d="M 33.5,130.5 C 35.6648,130.116 37.3315,130.783 38.5,132.5C 37.3315,134.217 35.6648,134.884 33.5,134.5C 33.5,133.167 33.5,131.833 33.5,130.5 Z"></path></g>
<g><path style="opacity:0.998" fill="#4f5dca" d="M 7.5,128.5 C 7.83333,128.5 8.16667,128.5 8.5,128.5C 9.51675,139.887 12.1834,150.887 16.5,161.5C 15.6798,163.111 14.3464,163.778 12.5,163.5C 9.07174,154.12 6.73841,144.453 5.5,134.5C 7.30794,133.082 7.97461,131.082 7.5,128.5 Z"></path></g>
<g><path style="opacity:1" fill="#6e79d5" d="M 233.5,120.5 C 233.334,125.511 233.501,130.511 234,135.5C 234.383,134.944 234.883,134.611 235.5,134.5C 235.451,138.078 234.785,141.411 233.5,144.5C 233.975,141.918 233.308,139.918 231.5,138.5C 231.982,132.34 232.649,126.34 233.5,120.5 Z"></path></g>
<g><path style="opacity:1" fill="#3c4dc9" d="M 231.5,138.5 C 233.308,139.918 233.975,141.918 233.5,144.5C 233.5,145.167 233.5,145.833 233.5,146.5C 232.065,147.79 231.065,149.456 230.5,151.5C 229.614,150.675 229.281,149.675 229.5,148.5C 229.851,145.097 230.518,141.763 231.5,138.5 Z"></path></g>
<g><path style="opacity:1" fill="#334ecc" d="M 204.5,148.5 C 205.481,150.396 206.481,152.396 207.5,154.5C 204.372,158.618 201.706,158.285 199.5,153.5C 201.394,152.055 203.06,150.388 204.5,148.5 Z"></path></g>
<g><path style="opacity:1" fill="#5561cc" d="M 233.5,146.5 C 230.779,159.853 225.279,171.853 217,182.5C 215.635,181.407 215.301,180.074 216,178.5C 221.91,169.022 226.41,159.022 229.5,148.5C 229.281,149.675 229.614,150.675 230.5,151.5C 231.065,149.456 232.065,147.79 233.5,146.5 Z"></path></g>
<g><path style="opacity:1" fill="#567ae2" d="M 183.5,113.5 C 183.833,113.5 184.167,113.5 184.5,113.5C 185.475,141.468 185.808,169.468 185.5,197.5C 184.8,169.647 184.134,141.647 183.5,113.5 Z"></path></g>
<g><path style="opacity:1" fill="#c2effe" d="M 93.5,114.5 C 85.5,115.167 77.5,115.833 69.5,116.5C 66.5722,117.591 64.4055,119.591 63,122.5C 62.1703,145.67 62.337,168.67 63.5,191.5C 101.663,192.499 139.996,192.832 178.5,192.5C 178.831,168.661 178.498,144.994 177.5,121.5C 177.586,120.504 177.252,119.671 176.5,119C 173.268,116.886 169.935,115.053 166.5,113.5C 171.205,112.017 175.872,112.35 180.5,114.5C 180.833,115.167 181.167,115.833 181.5,116.5C 181.5,142.833 181.5,169.167 181.5,195.5C 140.833,195.5 100.167,195.5 59.5,195.5C 59.3334,168.831 59.5,142.165 60,115.5C 60.8333,114.667 61.6667,113.833 62.5,113C 71.8333,112.333 81.1667,112.333 90.5,113C 91.5266,113.513 92.5266,114.013 93.5,114.5 Z"></path></g>
<g><path style="opacity:1" fill="#3158c4" d="M 177.5,121.5 C 178.498,144.994 178.831,168.661 178.5,192.5C 139.996,192.832 101.663,192.499 63.5,191.5C 101.5,191.5 139.5,191.5 177.5,191.5C 177.5,168.167 177.5,144.833 177.5,121.5 Z"></path></g>
<g><path style="opacity:1" fill="#a2cefb" d="M 66.5,122.5 C 66.5,134.5 66.5,146.5 66.5,158.5C 66.5,168.5 66.5,178.5 66.5,188.5C 102.5,188.5 138.5,188.5 174.5,188.5C 174.5,178.833 174.5,169.167 174.5,159.5C 174.5,147.167 174.5,134.833 174.5,122.5C 175.497,144.66 175.831,166.994 175.5,189.5C 138.833,189.5 102.167,189.5 65.5,189.5C 65.1692,166.994 65.5026,144.66 66.5,122.5 Z"></path></g>
<g><path style="opacity:1" fill="#c0f1fe" d="M 66.5,158.5 C 86.286,183.595 111.953,192.095 143.5,184C 149.47,181.86 154.47,178.36 158.5,173.5C 164.067,172.266 167.734,168.933 169.5,163.5C 171.419,162.388 173.086,161.054 174.5,159.5C 174.5,169.167 174.5,178.833 174.5,188.5C 138.5,188.5 102.5,188.5 66.5,188.5C 66.5,178.5 66.5,168.5 66.5,158.5 Z"></path></g>
<g><path style="opacity:1" fill="#d5f5fd" d="M 174.5,122.5 C 174.5,134.833 174.5,147.167 174.5,159.5C 173.086,161.054 171.419,162.388 169.5,163.5C 167.734,168.933 164.067,172.266 158.5,173.5C 154.47,178.36 149.47,181.86 143.5,184C 111.953,192.095 86.286,183.595 66.5,158.5C 66.5,146.5 66.5,134.5 66.5,122.5C 66.9528,121.542 67.6195,120.708 68.5,120C 74.3333,119.833 80.1667,119.667 86,119.5C 98.1186,119.367 110.119,120.367 122,122.5C 131.173,120.977 140.506,119.977 150,119.5C 154.885,119.28 159.552,119.946 164,121.5C 166,120.833 168,120.167 170,119.5C 172.183,119.522 173.683,120.522 174.5,122.5 Z"></path></g>
<g><path style="opacity:1" fill="#759ae7" d="M 93.5,114.5 C 94.0431,114.56 94.3764,114.893 94.5,115.5C 86.1932,116.498 77.8599,116.831 69.5,116.5C 77.5,115.833 85.5,115.167 93.5,114.5 Z"></path></g>
<g><path style="opacity:1" fill="#d2ecff" d="M 153.5,112.5 C 153.833,112.5 154.167,112.5 154.5,112.5C 156.833,112.5 159.167,112.5 161.5,112.5C 160.833,113.5 160.167,114.5 159.5,115.5C 156.813,115.664 154.146,115.497 151.5,115C 152.381,114.292 153.047,113.458 153.5,112.5 Z"></path></g>
<g><path style="opacity:1" fill="#a8d2ff" d="M 181.5,116.5 C 182.498,142.995 182.831,169.661 182.5,196.5C 141.5,196.5 100.5,196.5 59.5,196.5C 59.5,196.167 59.5,195.833 59.5,195.5C 100.167,195.5 140.833,195.5 181.5,195.5C 181.5,169.167 181.5,142.833 181.5,116.5 Z"></path></g>
<g><path style="opacity:1" fill="#2546cd" d="M 59.5,196.5 C 100.5,196.5 141.5,196.5 182.5,196.5C 183.338,196.842 183.672,197.508 183.5,198.5C 141.33,198.168 99.33,198.501 57.5,199.5C 56.1667,199.5 55.5,198.833 55.5,197.5C 56.7079,196.766 58.0413,196.433 59.5,196.5 Z"></path></g>
<g><path style="opacity:1" fill="#4356c7" d="M 55.5,197.5 C 55.5,198.833 56.1667,199.5 57.5,199.5C 99.33,198.501 141.33,198.168 183.5,198.5C 184.791,198.737 185.791,198.404 186.5,197.5C 189.022,199.172 191.688,200.672 194.5,202C 196.329,203.113 197.163,204.613 197,206.5C 190.09,213.253 182.256,218.587 173.5,222.5C 174.116,220.583 175.45,219.416 177.5,219C 158.667,218.833 139.833,218.667 121,218.5C 101.821,218.5 82.988,219.167 64.5,220.5C 56.2884,217.225 49.2884,212.225 43.5,205.5C 47.1763,202.33 51.1763,199.663 55.5,197.5 Z M 178.5,205.5 C 178.833,205.5 179.167,205.5 179.5,205.5C 181.327,206.932 182.994,208.599 184.5,210.5C 182.2,212.984 179.533,214.984 176.5,216.5C 168.493,216.666 160.493,216.5 152.5,216C 159.188,214.665 164.521,211.332 168.5,206C 171.817,205.502 175.15,205.335 178.5,205.5 Z M 62.5,205.5 C 65.1873,205.336 67.854,205.503 70.5,206C 76.4348,210.794 82.7681,214.127 89.5,216C 81.1733,216.5 72.84,216.666 64.5,216.5C 61.4669,214.984 58.8003,212.984 56.5,210.5C 58.5193,208.81 60.5193,207.144 62.5,205.5 Z M 179.5,201.5 C 180.568,200.566 181.901,200.232 183.5,200.5C 186.312,202.076 188.978,203.91 191.5,206C 190.667,206.833 189.833,207.667 189,208.5C 187.226,207.035 185.392,205.702 183.5,204.5C 182.738,202.738 181.404,201.738 179.5,201.5 Z M 57.5,200.5 C 59.099,200.232 60.4324,200.566 61.5,201.5C 58.2295,203.591 55.0628,205.924 52,208.5C 51.1667,207.667 50.3333,206.833 49.5,206C 52.0472,203.946 54.7139,202.113 57.5,200.5 Z"></path></g>
<g><path style="opacity:0.995" fill="#b9e6fd" d="M 62.5,205.5 C 62.5,205.167 62.5,204.833 62.5,204.5C 101.337,204.168 140.004,204.501 178.5,205.5C 175.15,205.335 171.817,205.502 168.5,206C 164.521,211.332 159.188,214.665 152.5,216C 160.493,216.5 168.493,216.666 176.5,216.5C 139.167,217.833 101.833,217.833 64.5,216.5C 72.84,216.666 81.1733,216.5 89.5,216C 82.7681,214.127 76.4348,210.794 70.5,206C 67.854,205.503 65.1873,205.336 62.5,205.5 Z"></path></g>
<g><path style="opacity:1" fill="#2244ca" d="M 183.5,204.5 C 183.631,205.376 183.298,206.043 182.5,206.5C 181.583,205.873 180.583,205.539 179.5,205.5C 179.167,205.5 178.833,205.5 178.5,205.5C 140.004,204.501 101.337,204.168 62.5,204.5C 61.6236,204.631 60.9569,204.298 60.5,203.5C 100.496,202.333 140.496,202.167 180.5,203C 181.244,204.039 182.244,204.539 183.5,204.5 Z"></path></g>
<g><path style="opacity:0.985" fill="#abd7ff" d="M 57.5,200.5 C 57.5,200.167 57.5,199.833 57.5,199.5C 99.67,199.168 141.67,199.501 183.5,200.5C 181.901,200.232 180.568,200.566 179.5,201.5C 140.167,201.5 100.833,201.5 61.5,201.5C 60.4324,200.566 59.099,200.232 57.5,200.5 Z"></path></g>
<g><path style="opacity:1" fill="#2844ca" d="M 173.5,222.5 C 171.217,222.392 169.217,221.559 167.5,220C 135.502,219.5 103.502,219.333 71.5,219.5C 71.5,220.5 71.5,221.5 71.5,222.5C 70.5,222.5 69.5,222.5 68.5,222.5C 66.847,222.34 65.5137,221.674 64.5,220.5C 82.988,219.167 101.821,218.5 121,218.5C 139.833,218.667 158.667,218.833 177.5,219C 175.45,219.416 174.116,220.583 173.5,222.5 Z"></path></g>
<g><path style="opacity:0.615" fill="#5768d3" d="M 173.5,222.5 C 163.895,227.831 153.562,231.497 142.5,233.5C 143.567,231.121 142.567,230.121 139.5,230.5C 148.727,228.535 157.727,225.535 166.5,221.5C 135.505,220.333 104.505,220.167 73.5,221C 79.7123,224.011 86.0457,226.511 92.5,228.5C 90.8008,228.34 89.1341,228.506 87.5,229C 89.3146,229.757 90.9812,230.59 92.5,231.5C 83.7994,230.049 75.7994,227.049 68.5,222.5C 69.5,222.5 70.5,222.5 71.5,222.5C 71.5,221.5 71.5,220.5 71.5,219.5C 103.502,219.333 135.502,219.5 167.5,220C 169.217,221.559 171.217,222.392 173.5,222.5 Z M 139.5,230.5 C 123.722,232.222 108.055,231.556 92.5,228.5C 86.0457,226.511 79.7123,224.011 73.5,221C 104.505,220.167 135.505,220.333 166.5,221.5C 157.727,225.535 148.727,228.535 139.5,230.5 Z"></path></g>
<g><path style="opacity:1" fill="#4e5dcb" d="M 92.5,228.5 C 108.055,231.556 123.722,232.222 139.5,230.5C 142.567,230.121 143.567,231.121 142.5,233.5C 125.548,236.618 108.881,235.951 92.5,231.5C 90.9812,230.59 89.3146,229.757 87.5,229C 89.1341,228.506 90.8008,228.34 92.5,228.5 Z"></path></g>
</svg><style>@media (prefers-color-scheme: light) { :root { filter: none; } }
</style></svg>